<svg width="128" height="127" viewBox="0 0 128 127" xmlns="http://www.w3.org/2000/svg"><title>Desktop</title><g fill="none" fill-rule="evenodd"><path d="M81.526 99.377c12.946 0 21.937 9.166 26.973 27.5H63.817c-8.3 0-16.594-1.654-24.262-4.828a63.317 63.317 0 0 1-10.961-5.858 63.5 63.5 0 0 1-9.609-7.884A63.372 63.372 0 0 1 5.243 87.736 63.642 63.642 0 0 1 .416 63.475a63.657 63.657 0 0 1 4.827-24.264 63.317 63.317 0 0 1 5.858-10.961 63.513 63.513 0 0 1 7.884-9.608 63.445 63.445 0 0 1 20.57-13.745A63.431 63.431 0 0 1 76.187 1.29c4.07.81 8.06 2.02 11.894 3.607a63.464 63.464 0 0 1 20.569 13.745 63.46 63.46 0 0 1 7.885 9.608 63.25 63.25 0 0 1 5.858 10.961 63.677 63.677 0 0 1 4.828 24.264v44.681c-18.334-5.037-27.5-14.027-27.5-26.972V63.475c0-9.438-3.91-18.74-10.527-25.387a35.795 35.795 0 0 0-11.636-7.783 36.036 36.036 0 0 0-13.741-2.733c-4.697 0-9.396.935-13.738 2.733a35.814 35.814 0 0 0-11.638 7.783c-6.617 6.647-10.525 15.949-10.525 25.387 0 4.701.937 9.396 2.733 13.738a35.902 35.902 0 0 0 19.43 19.43 36.037 36.037 0 0 0 13.738 2.734h17.709z" fill="#FFF"/><path d="M81.526 99.377c12.946 0 21.937 9.166 26.973 27.5H63.817c-8.3 0-16.594-1.654-24.262-4.828a63.317 63.317 0 0 1-10.961-5.858 63.5 63.5 0 0 1-9.609-7.884A63.372 63.372 0 0 1 5.243 87.736 63.642 63.642 0 0 1 .416 63.475a63.657 63.657 0 0 1 4.827-24.264 63.317 63.317 0 0 1 5.858-10.961 63.513 63.513 0 0 1 7.884-9.608 63.445 63.445 0 0 1 20.57-13.745A63.431 63.431 0 0 1 76.187 1.29c4.07.81 8.06 2.02 11.894 3.607a63.464 63.464 0 0 1 20.569 13.745 63.46 63.46 0 0 1 7.885 9.608 63.25 63.25 0 0 1 5.858 10.961 63.677 63.677 0 0 1 4.828 24.264v44.681c-18.334-5.037-27.5-14.027-27.5-26.972V63.475c0-9.438-3.91-18.74-10.527-25.387a35.795 35.795 0 0 0-11.636-7.783 36.036 36.036 0 0 0-13.741-2.733c-4.697 0-9.396.935-13.738 2.733a35.814 35.814 0 0 0-11.638 7.783c-6.617 6.647-10.525 15.949-10.525 25.387 0 4.701.937 9.396 2.733 13.738a35.902 35.902 0 0 0 19.43 19.43 36.037 36.037 0 0 0 13.738 2.734h17.709z" stroke="#FFF"/></g></svg>